<svg version="1.1" id="Layer_1" xmlns="http://www.w3.org/2000/svg" xmlns:xlink="http://www.w3.org/1999/xlink" x="0px" y="0px"
	 width="100%" viewBox="0 0 1300 1040" enable-background="new 0 0 1300 1040" xml:space="preserve">
<path fill="#000000" opacity="1.000000" stroke="none" 
	d="
M875.000000,1041.000000 
	C583.333313,1041.000000 292.166656,1041.000000 1.000000,1041.000000 
	C1.000000,694.333313 1.000000,347.666656 1.000000,1.000000 
	C434.333344,1.000000 867.666687,1.000000 1301.000000,1.000000 
	C1301.000000,347.666656 1301.000000,694.333313 1301.000000,1041.000000 
	C1159.166626,1041.000000 1017.333313,1041.000000 875.000000,1041.000000 
M771.005127,260.993591 
	C771.005127,260.993591 770.995361,260.984863 770.867249,260.511505 
	C770.669250,260.152557 770.387939,260.066681 769.544373,260.069824 
	C769.375854,260.040833 769.207397,260.011841 768.897827,259.475525 
	C768.602905,259.311005 768.307983,259.146515 767.713867,258.344879 
	C762.488586,255.220703 757.263306,252.096527 752.005798,248.993134 
	C752.005798,248.993134 752.023376,248.961105 751.729004,248.354401 
	C750.501465,247.890808 749.273865,247.427216 748.004883,246.998032 
	C748.004883,246.998032 748.035522,246.954391 747.890442,246.478134 
	C747.685913,246.113144 747.400024,246.030914 746.371094,245.926804 
	C742.937073,244.273788 739.503113,242.620773 735.687561,240.317673 
	C732.466064,238.921280 729.279846,237.435760 726.017273,236.142914 
	C704.247681,227.516251 681.513611,223.328461 658.240784,222.180847 
	C649.851074,221.767120 641.338989,222.223358 632.981567,223.162704 
	C621.644775,224.436951 610.143921,225.592285 599.180115,228.536591 
	C581.963623,233.160019 565.385803,239.654373 549.737488,248.589600 
	C527.062378,261.537109 507.388611,277.914032 490.783356,297.926270 
	C477.969574,313.369141 467.911011,330.535889 459.931488,349.010437 
	C451.271851,369.059570 445.709656,389.957245 444.268921,411.577362 
	C442.715302,434.891479 443.328552,458.388580 450.179504,481.023926 
	C453.985992,493.600464 459.319763,505.714722 464.040070,518.772583 
	C466.776306,523.862183 469.512543,528.951843 472.147949,534.514526 
	C472.314240,534.835022 472.577911,534.994507 473.189606,535.615601 
	C473.875336,536.739075 474.561035,537.862549 475.308289,539.662476 
	C482.642792,549.116882 489.977295,558.571228 497.392059,568.660828 
	C503.934967,574.777222 510.477844,580.893616 517.281433,587.636536 
	C518.799316,588.849915 520.256104,590.150757 521.846008,591.261047 
	C527.517029,595.221375 533.233337,599.116943 539.262817,603.641113 
	C542.491882,605.436829 545.720947,607.232483 549.265015,609.646484 
	C558.179932,613.764099 567.094910,617.881714 576.381409,622.586426 
	C577.933044,623.031128 579.484619,623.475891 581.013000,623.985901 
	C581.013000,623.985901 581.080872,623.971802 581.185181,624.415344 
	C581.185181,624.415344 581.521362,624.721924 581.521362,624.721924 
	C581.521362,624.721924 581.972168,624.660278 582.644104,624.802612 
	C583.099487,624.850586 583.554932,624.898560 584.424133,625.563660 
	C593.279968,627.715088 602.135742,629.866577 611.476440,632.635498 
	C618.317566,633.657959 625.158752,634.680359 632.923340,635.869080 
	C651.502197,635.846985 670.065247,636.697266 688.526733,633.012695 
	C712.662842,628.195557 735.515442,620.065552 756.571411,607.450439 
	C778.028687,594.594788 796.981934,578.626221 812.477844,558.796143 
	C830.437988,535.812561 843.994690,510.531464 850.842896,482.100098 
	C854.044556,468.807953 855.974121,455.166199 857.716492,441.584900 
	C858.529175,435.250031 857.525574,428.682098 857.510864,421.415619 
	C857.458374,420.073822 857.405945,418.732056 857.694763,416.806641 
	C857.142273,415.850983 856.589844,414.895294 855.989197,413.030975 
	C855.911804,409.681702 855.834412,406.332397 855.848022,402.140991 
	C855.765503,400.735718 855.682922,399.330414 855.647278,397.524048 
	C855.504456,397.262360 855.283997,397.125732 854.904358,396.410034 
	C854.843811,395.941864 854.783203,395.473724 854.886230,394.274200 
	C854.272705,393.152740 853.659119,392.031281 852.989136,390.019257 
	C852.234253,385.648254 851.479370,381.277222 850.780884,376.399628 
	C850.601135,376.132996 850.421326,375.866364 850.645508,375.241730 
	C850.438965,374.821716 850.232483,374.401703 849.938904,373.191010 
	C846.954590,364.881073 843.970215,356.571136 840.377869,347.771393 
	C835.589294,338.184021 830.800720,328.596680 825.702820,318.388580 
	C819.477051,310.244354 813.251282,302.100128 806.735657,293.344055 
	C806.130493,292.580872 805.603699,291.736084 804.907654,291.067566 
	C799.639771,286.007874 794.338623,280.982727 789.028748,275.982208 
	C789.028748,275.982208 789.059326,275.958405 788.908813,275.455811 
	C788.614807,275.289703 788.320801,275.123566 787.726685,274.359467 
	C782.492371,270.231628 777.258057,266.103790 772.000000,262.000000 
	C772.000000,262.000000 772.025024,261.977295 771.892883,261.474884 
	C771.600403,261.317474 771.307922,261.160065 771.005127,260.993591 
z"/>
<path fill="#5AE9F2" opacity="1.000000" stroke="none" 
	d="
M463.965149,518.037354 
	C459.319763,505.714722 453.985992,493.600464 450.179504,481.023926 
	C443.328552,458.388580 442.715302,434.891479 444.268921,411.577362 
	C445.709656,389.957245 451.271851,369.059570 459.931488,349.010437 
	C467.911011,330.535889 477.969574,313.369141 490.783356,297.926270 
	C507.388611,277.914032 527.062378,261.537109 549.737488,248.589600 
	C565.385803,239.654373 581.963623,233.160019 599.180115,228.536591 
	C610.143921,225.592285 621.644775,224.436951 632.981567,223.162704 
	C641.338989,222.223358 649.851074,221.767120 658.240784,222.180847 
	C681.513611,223.328461 704.247681,227.516251 726.017273,236.142914 
	C729.279846,237.435760 732.466064,238.921280 735.614380,240.915268 
	C733.902466,244.881210 732.264526,248.250000 730.624573,251.617798 
	C729.419617,254.092194 728.211853,256.565247 726.636230,259.000427 
	C720.824768,257.007782 715.382324,255.053619 709.578247,253.051544 
	C707.832825,252.711609 706.449097,252.419601 704.835815,252.068298 
	C704.606262,252.009018 704.134338,251.963181 703.894470,251.667923 
	C701.305908,250.684494 698.975037,249.926483 696.605530,249.319656 
	C682.383789,245.677536 668.056274,242.813797 652.784546,243.589142 
	C642.897522,244.053024 633.368225,243.878906 624.066467,245.249161 
	C586.306641,250.811630 553.156433,266.517090 525.117676,292.436523 
	C492.106171,322.952820 472.140656,360.613892 466.520355,405.240692 
	C464.790985,418.972168 466.071472,433.082764 465.920227,447.466919 
	C467.126373,467.838196 473.097900,486.558563 480.065704,504.916290 
	C478.316254,505.481262 476.682220,505.769287 475.604889,506.701050 
	C473.426361,508.585236 471.593872,510.863220 469.535614,512.894653 
	C467.738007,514.668884 465.826416,516.327637 463.965149,518.037354 
z"/>
<path fill="#0A4877" opacity="1.000000" stroke="none" 
	d="
M857.345276,422.219818 
	C857.525574,428.682098 858.529175,435.250031 857.716492,441.584900 
	C855.974121,455.166199 854.044556,468.807953 850.842896,482.100098 
	C843.994690,510.531464 830.437988,535.812561 812.477844,558.796143 
	C796.981934,578.626221 778.028687,594.594788 756.571411,607.450439 
	C735.515442,620.065552 712.662842,628.195557 688.526733,633.012695 
	C670.065247,636.697266 651.502197,635.846985 632.603027,635.435669 
	C633.821228,634.668762 635.400574,633.926086 636.890991,634.074829 
	C642.386169,634.623230 646.905579,633.267822 650.138489,628.506104 
	C650.658875,627.739807 651.670288,627.298706 652.473389,626.733765 
	C656.232422,624.089661 658.721680,620.919067 657.413330,615.943359 
	C666.906616,614.848511 676.087097,614.365234 685.023865,612.628479 
	C770.133972,596.089050 832.087646,525.293945 837.543213,439.032959 
	C841.898560,437.680573 846.285217,437.039307 847.787659,432.018433 
	C848.109192,430.944122 849.731995,430.317719 850.554321,429.319305 
	C851.489075,428.184204 852.839111,426.884338 852.880676,425.619019 
	C852.989136,422.318054 854.583435,421.677094 857.345276,422.219818 
z"/>
<path fill="#3299B5" opacity="1.000000" stroke="none" 
	d="
M538.932495,603.037109 
	C533.233337,599.116943 527.517029,595.221375 521.846008,591.261047 
	C520.256104,590.150757 518.799316,588.849915 517.582275,587.313843 
	C525.804077,587.900085 530.521057,582.602112 536.196167,577.691101 
	C534.238586,575.586121 532.520874,573.671082 530.729431,571.827698 
	C527.515503,568.520691 524.257202,565.256836 521.273682,561.755249 
	C525.247375,555.460876 518.267273,553.592651 516.345764,549.281372 
	C518.225220,549.151672 519.655579,549.052917 521.368347,549.124878 
	C529.644165,556.516541 537.587402,563.794312 545.656311,570.929993 
	C548.810669,573.719604 552.247131,576.190063 555.838135,579.026855 
	C556.779236,579.483582 557.437317,579.719238 558.073730,579.921570 
	C558.052063,579.888245 558.113831,579.838074 558.068726,580.236450 
	C557.247620,583.616699 556.016418,586.610779 560.113037,588.461426 
	C560.789185,588.766846 560.687012,590.795410 560.607178,592.076416 
	C558.085327,594.054565 555.321777,595.622498 553.842834,597.992249 
	C551.177490,602.262939 547.569458,603.408691 542.900513,602.861572 
	C542.534363,602.812927 542.266052,602.905273 541.614502,602.994934 
	C540.464905,603.007202 539.698730,603.022156 538.932495,603.037109 
z"/>
<path fill="#3299B5" opacity="1.000000" stroke="none" 
	d="
M807.025513,293.955872 
	C813.251282,302.100128 819.477051,310.244354 825.848450,319.091309 
	C826.470581,321.326721 826.677734,323.016724 827.466431,324.366974 
	C833.352539,334.443481 827.954956,343.293365 816.846191,344.716064 
	C810.956604,335.567749 805.229248,326.724640 799.532593,317.861816 
	C798.300903,315.945465 797.179565,313.958160 796.347351,311.934784 
	C798.985901,306.489563 806.981812,303.571320 803.646057,295.744232 
	C804.763428,295.152924 805.894470,294.554382 807.025513,293.955872 
z"/>
<path fill="#46C2D4" opacity="1.000000" stroke="none" 
	d="
M497.311829,568.025635 
	C489.977295,558.571228 482.642792,549.116882 475.676147,539.316162 
	C479.036835,538.729187 483.699493,539.591858 484.719818,538.047791 
	C488.254242,532.699036 492.127502,532.492249 497.411285,535.155640 
	C504.158661,543.190796 510.620331,551.067810 516.889038,559.166748 
	C514.632996,560.259644 512.552368,561.091736 510.510345,562.009521 
	C506.100311,563.991516 501.710114,566.017578 497.311829,568.025635 
z"/>
<path fill="#54DEE9" opacity="1.000000" stroke="none" 
	d="
M497.125580,534.997559 
	C492.127502,532.492249 488.254242,532.699036 484.719818,538.047791 
	C483.699493,539.591858 479.036835,538.729187 475.645386,538.977966 
	C474.561035,537.862549 473.875336,536.739075 473.018311,535.103760 
	C472.714539,534.335815 472.515137,534.152283 472.248810,534.041443 
	C469.512543,528.951843 466.776306,523.862183 464.002625,518.404968 
	C465.826416,516.327637 467.738007,514.668884 469.535614,512.894653 
	C471.593872,510.863220 473.426361,508.585236 475.604889,506.701050 
	C476.682220,505.769287 478.316254,505.481262 480.273376,505.162292 
	C482.566071,508.615295 484.283844,511.807983 486.048859,515.355591 
	C489.772552,522.139465 493.449066,528.568542 497.125580,534.997559 
z"/>
<path fill="#3BAAC2" opacity="1.000000" stroke="none" 
	d="
M497.351929,568.343262 
	C501.710114,566.017578 506.100311,563.991516 510.510345,562.009521 
	C512.552368,561.091736 514.632996,560.259644 517.157959,559.322205 
	C518.752319,560.162048 519.884888,561.068481 521.017456,561.974915 
	C524.257202,565.256836 527.515503,568.520691 530.729431,571.827698 
	C532.520874,573.671082 534.238586,575.586121 536.196167,577.691101 
	C530.521057,582.602112 525.804077,587.900085 517.451904,587.000549 
	C510.477844,580.893616 503.934967,574.777222 497.351929,568.343262 
z"/>
<path fill="#1C6D94" opacity="1.000000" stroke="none" 
	d="
M610.991577,632.018005 
	C602.135742,629.866577 593.279968,627.715088 584.323486,624.889526 
	C589.483276,622.413391 595.026184,621.905823 599.555115,617.587769 
	C602.781982,614.511169 603.644592,612.486145 601.412354,609.119873 
	C611.192322,611.082947 620.590698,613.007141 630.032532,615.280579 
	C629.566833,617.729675 629.602661,620.209595 628.450684,621.861084 
	C624.263611,627.863586 617.175293,629.231812 610.991577,632.018005 
z"/>
<path fill="#2681A3" opacity="1.000000" stroke="none" 
	d="
M601.030640,609.080933 
	C603.644592,612.486145 602.781982,614.511169 599.555115,617.587769 
	C595.026184,621.905823 589.483276,622.413391 584.116577,624.580994 
	C583.554932,624.898560 583.099487,624.850586 582.193359,624.577148 
	C581.555908,624.166138 581.335266,624.039490 581.080872,623.971802 
	C581.080872,623.971802 581.013000,623.985901 580.950562,623.633911 
	C579.262024,622.854431 577.635925,622.426941 576.009827,621.999390 
	C567.094910,617.881714 558.179932,613.764099 549.492554,609.338623 
	C553.693237,610.455688 557.666382,611.880615 561.243347,613.163391 
	C563.114990,612.170471 564.759399,610.579895 566.458984,610.518494 
	C574.672546,610.221680 576.427734,608.789429 577.379089,600.958496 
	C585.509827,603.717224 593.270264,606.399048 601.030640,609.080933 
z"/>
<path fill="#17648C" opacity="1.000000" stroke="none" 
	d="
M611.234009,632.326782 
	C617.175293,629.231812 624.263611,627.863586 628.450684,621.861084 
	C629.602661,620.209595 629.566833,617.729675 630.493774,615.279541 
	C639.603455,615.277283 648.295471,615.625305 656.987488,615.973267 
	C658.721680,620.919067 656.232422,624.089661 652.473389,626.733765 
	C651.670288,627.298706 650.658875,627.739807 650.138489,628.506104 
	C646.905579,633.267822 642.386169,634.623230 636.890991,634.074829 
	C635.400574,633.926086 633.821228,634.668762 632.141235,635.352539 
	C625.158752,634.680359 618.317566,633.657959 611.234009,632.326782 
z"/>
<path fill="#21759A" opacity="1.000000" stroke="none" 
	d="
M850.241577,375.599731 
	C850.421326,375.866364 850.601135,376.132996 850.350220,376.689667 
	C847.902405,379.064545 845.848816,381.115509 843.876709,383.242126 
	C840.890259,386.462494 838.637512,390.806946 833.023621,389.633667 
	C830.932251,381.850983 828.948608,374.452209 827.202759,366.801575 
	C836.093384,363.518066 838.704712,356.011871 840.985840,348.261169 
	C843.970215,356.571136 846.954590,364.881073 850.022949,373.992523 
	C850.151917,375.062622 850.196777,375.331177 850.241577,375.599731 
z"/>
<path fill="#1C6D94" opacity="1.000000" stroke="none" 
	d="
M833.131348,390.017578 
	C838.637512,390.806946 840.890259,386.462494 843.876709,383.242126 
	C845.848816,381.115509 847.902405,379.064545 850.322021,376.942963 
	C851.479370,381.277222 852.234253,385.648254 853.005371,390.826843 
	C853.588623,392.758148 854.155640,393.881836 854.722656,395.005554 
	C854.783203,395.473724 854.843811,395.941864 855.017334,396.918457 
	C855.248657,397.629120 855.405396,397.795197 855.600403,397.925140 
	C855.682922,399.330414 855.765503,400.735718 855.459106,402.550232 
	C853.952637,402.785400 852.835022,402.611267 852.763428,402.600128 
	C850.233582,405.833527 847.505798,408.196564 846.258057,411.178864 
	C844.401794,415.615936 840.027222,415.000702 836.975220,416.584137 
	C835.658142,407.448334 834.394775,398.732971 833.131348,390.017578 
z"/>
<path fill="#2681A3" opacity="1.000000" stroke="none" 
	d="
M840.681885,348.016296 
	C838.704712,356.011871 836.093384,363.518066 826.956421,366.547852 
	C823.321289,359.368774 820.170288,352.191528 817.019287,345.014282 
	C827.954956,343.293365 833.352539,334.443481 827.466431,324.366974 
	C826.677734,323.016724 826.470581,321.326721 826.003052,319.401703 
	C830.800720,328.596680 835.589294,338.184021 840.681885,348.016296 
z"/>
<path fill="#3BAAC2" opacity="1.000000" stroke="none" 
	d="
M806.880615,293.649963 
	C805.894470,294.554382 804.763428,295.152924 803.646057,295.744232 
	C806.981812,303.571320 798.985901,306.489563 796.071655,311.794159 
	C794.638184,310.816467 793.820312,309.910675 792.842163,308.713318 
	C788.785950,304.287354 784.890015,300.152954 781.297852,295.849976 
	C783.896912,291.166168 786.385498,286.734436 788.390442,282.093750 
	C789.170898,280.287262 788.861084,278.009766 789.047852,275.946838 
	C794.338623,280.982727 799.639771,286.007874 804.907654,291.067566 
	C805.603699,291.736084 806.130493,292.580872 806.880615,293.649963 
z"/>
<path fill="#4DD1E0" opacity="1.000000" stroke="none" 
	d="
M769.038879,259.982849 
	C769.207397,260.011841 769.375854,260.040833 769.906067,260.331818 
	C770.467834,260.803192 770.710388,260.933533 770.995361,260.984863 
	C770.995361,260.984863 771.005127,260.993591 771.123962,261.211365 
	C771.445374,261.694916 771.706116,261.877625 772.025024,261.977295 
	C772.025024,261.977295 772.000000,262.000000 772.000000,262.432617 
	C771.978638,266.741913 772.620483,270.735748 769.151917,273.780579 
	C766.553345,276.061707 763.573547,278.437714 767.231873,282.222046 
	C766.853271,282.469788 766.474670,282.717529 765.856689,282.726624 
	C762.208740,280.284271 758.799988,278.080597 755.170654,275.608154 
	C752.963257,273.905701 750.976501,272.471985 748.973022,270.658447 
	C746.990906,266.770264 746.160767,263.693054 750.019348,260.480042 
	C752.150146,258.705750 753.188782,255.619812 754.537903,253.421555 
	C753.578003,251.713165 752.807983,250.342773 752.037964,248.972366 
	C757.263306,252.096527 762.488586,255.220703 767.851074,258.910828 
	C767.988342,259.476746 767.962402,259.971680 767.857300,260.030609 
	C767.752258,260.089539 767.754333,260.407349 767.754333,260.407349 
	C767.754333,260.407349 768.030396,260.039825 768.282593,260.026794 
	C768.702759,260.003479 768.870789,259.993164 769.038879,259.982849 
z"/>
<path fill="#46C2D4" opacity="1.000000" stroke="none" 
	d="
M766.096008,282.965271 
	C766.474670,282.717529 766.853271,282.469788 767.231873,282.222046 
	C763.573547,278.437714 766.553345,276.061707 769.151917,273.780579 
	C772.620483,270.735748 771.978638,266.741913 772.011902,262.420593 
	C777.258057,266.103790 782.492371,270.231628 787.988403,274.880951 
	C788.456238,275.680359 788.725952,275.865692 789.059326,275.958405 
	C789.059326,275.958405 789.028748,275.982208 789.038330,275.964508 
	C788.861084,278.009766 789.170898,280.287262 788.390442,282.093750 
	C786.385498,286.734436 783.896912,291.166168 781.007202,295.687164 
	C775.640503,291.450378 770.868286,287.207825 766.096008,282.965271 
z"/>
<path fill="#54DEE9" opacity="1.000000" stroke="none" 
	d="
M752.021851,248.982758 
	C752.807983,250.342773 753.578003,251.713165 754.537903,253.421555 
	C753.188782,255.619812 752.150146,258.705750 750.019348,260.480042 
	C746.160767,263.693054 746.990906,266.770264 748.628906,270.585999 
	C741.202637,266.941925 734.104004,262.990417 727.005310,259.038879 
	C728.211853,256.565247 729.419617,254.092194 730.624573,251.617798 
	C732.264526,248.250000 733.902466,244.881210 735.805176,241.240311 
	C739.503113,242.620773 742.937073,244.273788 746.829590,246.249329 
	C747.495239,246.781418 747.744385,246.908936 748.035522,246.954391 
	C748.035522,246.954391 748.004883,246.998032 748.097534,247.332199 
	C749.467957,248.097946 750.745667,248.529526 752.023376,248.961121 
	C752.023376,248.961105 752.005798,248.993134 752.021851,248.982758 
z"/>
<path fill="#17648C" opacity="1.000000" stroke="none" 
	d="
M837.028809,417.004547 
	C840.027222,415.000702 844.401794,415.615936 846.258057,411.178864 
	C847.505798,408.196564 850.233582,405.833527 852.763428,402.600128 
	C852.835022,402.611267 853.952637,402.785400 855.413696,402.971313 
	C855.834412,406.332397 855.911804,409.681702 856.137695,413.829468 
	C856.641968,415.548767 856.997681,416.469513 857.353455,417.390259 
	C857.405945,418.732056 857.458374,420.073822 857.428101,421.817719 
	C854.583435,421.677094 852.989136,422.318054 852.880676,425.619019 
	C852.839111,426.884338 851.489075,428.184204 850.554321,429.319305 
	C849.731995,430.317719 848.109192,430.944122 847.787659,432.018433 
	C846.285217,437.039307 841.898560,437.680573 837.473938,438.563568 
	C837.033508,431.081055 837.031128,424.042786 837.028809,417.004547 
z"/>
<path fill="#2A8BAA" opacity="1.000000" stroke="none" 
	d="
M577.008728,600.881592 
	C576.427734,608.789429 574.672546,610.221680 566.458984,610.518494 
	C564.759399,610.579895 563.114990,612.170471 561.243347,613.163391 
	C557.666382,611.880615 553.693237,610.455688 549.335022,609.029541 
	C545.720947,607.232483 542.491882,605.436829 539.097656,603.339111 
	C539.698730,603.022156 540.464905,603.007202 541.615601,602.996155 
	C542.000000,603.000000 542.003052,603.002441 542.101807,603.141968 
	C542.467773,603.186890 542.735107,603.092224 543.001221,602.998779 
	C543.000000,603.000000 542.998474,603.002441 542.998474,603.002441 
	C547.569458,603.408691 551.177490,602.262939 553.842834,597.992249 
	C555.321777,595.622498 558.085327,594.054565 560.944824,592.149597 
	C566.749451,595.076538 571.879089,597.979065 577.008728,600.881592 
z"/>
<path fill="#1C6D94" opacity="1.000000" stroke="none" 
	d="
M576.195618,622.292969 
	C577.635925,622.426941 579.262024,622.854431 580.962219,623.601257 
	C579.484619,623.475891 577.933044,623.031128 576.195618,622.292969 
z"/>
<path fill="#17648C" opacity="1.000000" stroke="none" 
	d="
M854.804443,394.639893 
	C854.155640,393.881836 853.588623,392.758148 853.033569,391.272156 
	C853.659119,392.031281 854.272705,393.152740 854.804443,394.639893 
z"/>
<path fill="#4DD1E0" opacity="1.000000" stroke="none" 
	d="
M751.876221,248.657761 
	C750.745667,248.529526 749.467957,248.097946 748.118286,247.315002 
	C749.273865,247.427216 750.501465,247.890808 751.876221,248.657761 
z"/>
<path fill="#0A4877" opacity="1.000000" stroke="none" 
	d="
M857.524048,417.098450 
	C856.997681,416.469513 856.641968,415.548767 856.161865,414.283813 
	C856.589844,414.895294 857.142273,415.850983 857.524048,417.098450 
z"/>
<path fill="#46C2D4" opacity="1.000000" stroke="none" 
	d="
M770.931274,260.748169 
	C770.710388,260.933533 770.467834,260.803192 770.145508,260.423828 
	C770.387939,260.066681 770.669250,260.152557 770.931274,260.748169 
z"/>
<path fill="#46C2D4" opacity="1.000000" stroke="none" 
	d="
M768.968384,259.729187 
	C768.870789,259.993164 768.702759,260.003479 768.266968,260.008423 
	C767.999084,260.003052 767.962402,259.971680 767.962402,259.971680 
	C767.962402,259.971680 767.988342,259.476746 768.000732,259.229370 
	C768.307983,259.146515 768.602905,259.311005 768.968384,259.729187 
z"/>
<path fill="#4DD1E0" opacity="1.000000" stroke="none" 
	d="
M747.963013,246.716263 
	C747.744385,246.908936 747.495239,246.781418 747.160522,246.401627 
	C747.400024,246.030914 747.685913,246.113144 747.963013,246.716263 
z"/>
<path fill="#46C2D4" opacity="1.000000" stroke="none" 
	d="
M771.958984,261.726074 
	C771.706116,261.877625 771.445374,261.694916 771.129150,261.215881 
	C771.307922,261.160065 771.600403,261.317474 771.958984,261.726074 
z"/>
<path fill="#1C6D94" opacity="1.000000" stroke="none" 
	d="
M581.133057,624.193604 
	C581.335266,624.039490 581.555908,624.166138 581.857422,624.505981 
	C581.972168,624.660278 581.521362,624.721924 581.521362,624.721924 
	C581.521362,624.721924 581.185181,624.415344 581.133057,624.193604 
z"/>
<path fill="#3BAAC2" opacity="1.000000" stroke="none" 
	d="
M788.984070,275.707092 
	C788.725952,275.865692 788.456238,275.680359 788.138428,275.179932 
	C788.320801,275.123566 788.614807,275.289703 788.984070,275.707092 
z"/>
<path fill="#46C2D4" opacity="1.000000" stroke="none" 
	d="
M472.198364,534.277954 
	C472.515137,534.152283 472.714539,534.335815 472.893005,534.792480 
	C472.577911,534.994507 472.314240,534.835022 472.198364,534.277954 
z"/>
<path fill="#1C6D94" opacity="1.000000" stroke="none" 
	d="
M850.443542,375.420715 
	C850.196777,375.331177 850.151917,375.062622 850.066528,374.387848 
	C850.232483,374.401703 850.438965,374.821716 850.443542,375.420715 
z"/>
<path fill="#17648C" opacity="1.000000" stroke="none" 
	d="
M855.623840,397.724609 
	C855.405396,397.795197 855.248657,397.629120 855.058105,397.270569 
	C855.283997,397.125732 855.504456,397.262360 855.623840,397.724609 
z"/>
<path fill="#17699D" opacity="1.000000" stroke="none" 
	d="
M465.973694,447.019745 
	C466.071472,433.082764 464.790985,418.972168 466.520355,405.240692 
	C472.140656,360.613892 492.106171,322.952820 525.117676,292.436523 
	C553.156433,266.517090 586.306641,250.811630 624.066467,245.249161 
	C633.368225,243.878906 642.897522,244.053024 652.552612,243.899323 
	C648.843018,248.475922 643.841797,249.611176 637.422729,248.478821 
	C639.116028,250.613403 640.062927,251.807007 640.557068,253.000641 
	C635.402893,253.666916 630.701477,254.333145 625.570984,254.999878 
	C621.438599,255.498856 617.696472,255.810699 614.046753,256.567810 
	C611.953674,257.002045 610.010620,258.159149 607.593689,258.995239 
	C599.123779,261.660400 591.060120,264.321167 582.638916,267.041138 
	C577.638428,269.217133 572.897156,271.147034 568.390015,273.521393 
	C565.726440,274.924591 563.433411,277.031036 560.760376,278.974487 
	C560.353455,279.413666 560.160034,279.699585 559.983643,279.975128 
	C560.000793,279.964752 559.963013,279.950867 559.577271,279.948303 
	C557.505127,280.485748 555.521118,280.630157 554.184875,281.635590 
	C548.988647,285.545349 543.998169,289.728516 538.637512,293.987335 
	C531.182251,301.646179 524.020569,309.127625 516.607056,316.858368 
	C512.523254,321.697968 508.691193,326.288300 504.578949,331.071747 
	C499.899261,339.185333 495.499756,347.105774 490.921631,355.336914 
	C488.274841,361.808868 485.806671,367.970093 483.211548,374.496948 
	C481.108490,382.914734 479.132324,390.966888 477.039734,399.414948 
	C476.618958,401.422638 476.104736,403.026489 476.043549,404.647491 
	C475.561371,417.417816 475.165741,430.191406 474.371948,442.944641 
	C473.324188,441.822662 472.686127,440.694122 471.961487,439.624237 
	C471.160583,438.441803 470.280426,437.313080 469.434814,436.160980 
	C468.958649,436.391815 468.482513,436.622681 468.006348,436.853516 
	C468.006348,438.786041 468.266052,440.765869 467.925140,442.636261 
	C467.646484,444.165161 466.651245,445.563507 465.973694,447.019745 
z"/>
<path fill="#2681A3" opacity="1.000000" stroke="none" 
	d="
M465.920227,447.466919 
	C466.651245,445.563507 467.646484,444.165161 467.925140,442.636261 
	C468.266052,440.765869 468.006348,438.786041 468.006348,436.853516 
	C468.482513,436.622681 468.958649,436.391815 469.434814,436.160980 
	C470.280426,437.313080 471.160583,438.441803 471.961487,439.624237 
	C472.686127,440.694122 473.324188,441.822662 474.467590,443.374023 
	C476.808777,454.374878 478.128662,465.065430 480.719421,475.438568 
	C483.106995,484.998260 486.859772,494.217010 490.235443,503.766479 
	C490.361969,504.485992 490.264252,505.024963 490.050171,505.694336 
	C490.093689,505.818909 490.253540,505.813049 490.542236,505.698456 
	C490.671051,505.589691 490.937622,505.796265 490.916199,506.158508 
	C489.263702,509.347382 487.632690,512.174011 486.001648,515.000671 
	C484.283844,511.807983 482.566071,508.615295 480.640625,505.176575 
	C473.097900,486.558563 467.126373,467.838196 465.920227,447.466919 
z"/>
<path fill="#21759A" opacity="1.000000" stroke="none" 
	d="
M641.009766,253.000610 
	C640.062927,251.807007 639.116028,250.613403 637.422729,248.478821 
	C643.841797,249.611176 648.843018,248.475922 653.015015,243.971298 
	C668.056274,242.813797 682.383789,245.677536 696.605530,249.319656 
	C698.975037,249.926483 701.305908,250.684494 703.515625,251.689682 
	C700.798157,252.633224 698.219727,253.259750 695.270508,253.976395 
	C695.189087,255.132538 695.087952,256.569489 694.572754,258.005005 
	C679.774841,256.339447 665.391113,254.675308 650.552856,253.007217 
	C647.068848,253.002380 644.039307,253.001495 641.009766,253.000610 
z"/>
<path fill="#2A8BAA" opacity="1.000000" stroke="none" 
	d="
M694.986816,258.006409 
	C695.087952,256.569489 695.189087,255.132538 695.270508,253.976395 
	C698.219727,253.259750 700.798157,252.633224 703.755493,251.984940 
	C704.134338,251.963181 704.606262,252.009018 704.962036,252.347382 
	C706.612305,255.573837 708.237122,254.772476 709.939941,253.099472 
	C715.382324,255.053619 720.824768,257.007782 726.636230,259.000427 
	C734.104004,262.990417 741.202637,266.941925 748.645508,270.965881 
	C750.976501,272.471985 752.963257,273.905701 754.694336,275.647339 
	C749.285095,275.978790 744.131470,276.002350 738.627319,275.964050 
	C730.374634,272.191772 722.580566,268.223419 714.536072,264.852997 
	C708.179321,262.189697 701.514648,260.261230 694.986816,258.006409 
z"/>
<path fill="#21759A" opacity="1.000000" stroke="none" 
	d="
M709.578247,253.051544 
	C708.237122,254.772476 706.612305,255.573837 705.191528,252.406677 
	C706.449097,252.419601 707.832825,252.711609 709.578247,253.051544 
z"/>
<path fill="#3AA8D1" opacity="1.000000" stroke="none" 
	d="
M577.379089,600.958496 
	C571.879089,597.979065 566.749451,595.076538 561.282166,592.100830 
	C560.687012,590.795410 560.789185,588.766846 560.113037,588.461426 
	C556.016418,586.610779 557.247620,583.616699 558.336304,580.309570 
	C559.100586,580.297119 559.552124,580.609985 560.180420,581.158081 
	C560.718628,581.528320 561.080139,581.663269 561.770264,581.877502 
	C567.795227,584.855042 573.364319,588.043701 579.208557,590.604492 
	C616.822937,607.085754 655.641479,610.437317 695.384644,600.112061 
	C793.554626,574.607727 850.156189,471.324585 818.735535,374.946289 
	C815.782593,365.888733 810.984070,357.432892 807.057251,348.360474 
	C805.812805,345.986938 804.553589,343.950592 803.195801,341.565308 
	C799.534302,335.427765 796.198486,329.482361 792.341980,323.896454 
	C788.775879,318.731232 784.652100,313.951019 781.147217,308.866455 
	C785.347778,308.822693 789.175110,308.913788 793.002441,309.004883 
	C793.820312,309.910675 794.638184,310.816467 795.731689,311.862915 
	C797.179565,313.958160 798.300903,315.945465 799.532593,317.861816 
	C805.229248,326.724640 810.956604,335.567749 816.846191,344.716064 
	C820.170288,352.191528 823.321289,359.368774 826.718628,366.799713 
	C828.948608,374.452209 830.932251,381.850983 833.023621,389.633667 
	C834.394775,398.732971 835.658142,407.448334 836.975220,416.584137 
	C837.031128,424.042786 837.033508,431.081055 837.105225,438.588684 
	C832.087646,525.293945 770.133972,596.089050 685.023865,612.628479 
	C676.087097,614.365234 666.906616,614.848511 657.413330,615.943359 
	C648.295471,615.625305 639.603455,615.277283 630.450195,614.930298 
	C620.590698,613.007141 611.192322,611.082947 601.412354,609.119873 
	C593.270264,606.399048 585.509827,603.717224 577.379089,600.958496 
z"/>
<path fill="#0E1D46" opacity="1.000000" stroke="none" 
	d="
M807.042480,348.697662 
	C810.984070,357.432892 815.782593,365.888733 818.735535,374.946289 
	C850.156189,471.324585 793.554626,574.607727 695.384644,600.112061 
	C655.641479,610.437317 616.822937,607.085754 579.208557,590.604492 
	C573.364319,588.043701 567.795227,584.855042 561.592712,581.642090 
	C560.725586,581.192566 560.364624,581.057678 560.003662,580.922852 
	C559.552124,580.609985 559.100586,580.297119 558.381470,579.911194 
	C558.113831,579.838074 558.052063,579.888245 557.857788,579.621216 
	C556.960693,579.171387 556.257935,578.988647 555.555176,578.805847 
	C552.247131,576.190063 548.810669,573.719604 545.656311,570.929993 
	C537.587402,563.794312 529.644165,556.516541 521.215576,548.826416 
	C514.149231,539.668945 507.321442,531.121338 500.961578,522.238647 
	C497.234924,517.033752 494.253998,511.294922 490.937622,505.796265 
	C490.937622,505.796265 490.671051,505.589691 490.469788,505.648560 
	C490.268494,505.707428 490.166534,505.563934 490.166534,505.563934 
	C490.264252,505.024963 490.361969,504.485992 490.637543,503.838135 
	C491.143341,503.675873 491.507111,503.696838 491.794098,503.558502 
	C517.970520,490.939209 544.152771,478.331543 570.263794,465.578156 
	C571.177673,465.131805 571.379395,463.227325 572.009827,461.550110 
	C572.048889,457.394226 571.991150,453.690643 572.028687,449.527954 
	C572.065674,442.380402 572.007324,435.691986 572.042725,428.542603 
	C572.080627,416.384674 572.024841,404.687683 572.063477,392.530518 
	C572.236938,375.100098 572.316040,358.129852 572.580261,341.506866 
	C572.846863,343.675171 572.998657,345.496155 572.999390,347.317200 
	C573.014343,383.732819 573.011780,420.148438 573.012817,456.564056 
	C573.012878,458.270050 573.012817,459.976074 573.012817,462.244781 
	C574.403931,460.390045 575.315796,459.174255 576.107361,458.118805 
	C577.955078,460.687195 579.508057,462.845825 581.182312,465.459198 
	C581.221802,473.274719 581.139954,480.635559 580.696533,488.077606 
	C576.856995,492.199219 577.073364,495.144897 581.181396,498.455536 
	C581.223328,503.603424 581.142029,508.299530 580.707764,513.083374 
	C579.713806,514.723083 579.250977,516.382019 578.396301,517.805725 
	C576.281616,521.328369 578.087524,522.418579 581.212524,522.825562 
	C581.163818,522.833618 581.183960,522.736938 581.205994,523.101685 
	C584.574768,523.937866 587.909546,524.680725 591.270508,524.828735 
	C600.686340,525.243530 610.112549,525.433411 619.535828,525.660889 
	C621.350769,525.704712 623.758423,525.981750 621.884521,522.615051 
	C622.160645,522.236267 622.310913,522.116699 622.734436,521.887939 
	C622.896667,520.518921 622.785645,519.259277 622.531982,517.551392 
	C622.474854,504.366425 622.560486,491.629608 622.961975,478.747833 
	C624.470703,476.049011 625.663574,473.495148 626.988892,470.629120 
	C629.916626,466.874908 632.711792,463.432892 635.762085,459.676819 
	C636.609009,460.696991 637.138855,461.289734 637.619141,461.920319 
	C652.243835,481.120483 666.842041,500.340820 681.530579,519.491943 
	C682.552429,520.824341 684.226990,522.549622 685.618530,522.568298 
	C701.693237,522.784485 717.771851,522.706360 734.776245,522.706360 
	C733.462036,520.783081 732.733093,519.564514 731.859619,518.460144 
	C708.824646,489.337799 685.797424,460.209198 662.680786,431.151733 
	C660.984741,429.019897 660.426392,427.629242 662.358582,425.210999 
	C682.939392,399.453857 703.399170,373.599976 723.879333,347.762512 
	C724.926270,346.441772 725.855591,345.027832 727.169189,343.198151 
	C711.889282,343.198151 697.559509,343.305786 683.233704,343.115204 
	C680.035339,343.072693 678.042664,344.048187 676.168274,346.583160 
	C666.371765,359.831940 656.416199,372.963135 646.221924,386.232666 
	C645.641907,386.618958 645.355835,386.907776 644.996582,387.475372 
	C644.327576,388.500549 643.731812,389.246948 642.751587,390.011169 
	C641.889771,390.848419 641.412415,391.667816 640.890930,392.657837 
	C640.846802,392.828461 640.507690,392.924591 640.154785,392.720459 
	C638.375916,393.269440 636.644897,393.729828 635.584839,394.834198 
	C633.060120,397.464478 630.852478,400.399109 628.655945,403.043243 
	C626.177551,400.940369 624.438904,399.465118 622.548950,397.544983 
	C622.493164,390.732788 622.588623,384.365448 622.934814,377.866089 
	C623.016846,376.489227 622.848083,375.244385 622.536194,373.588013 
	C622.489990,371.450439 622.586975,369.724365 622.974121,367.817352 
	C623.694885,365.748718 623.746277,363.657196 624.629822,362.012909 
	C626.943237,357.708038 626.082458,354.193329 622.571472,350.675293 
	C622.522705,349.900787 622.613098,349.449615 622.979187,348.834106 
	C623.524170,346.863708 626.072144,344.678040 622.700623,343.286774 
	C622.803772,343.209198 622.604492,343.373993 622.547974,343.113861 
	C622.690735,341.299286 622.690735,339.909668 622.690735,338.376434 
	C614.292358,339.295685 606.531372,340.312592 598.738770,340.933441 
	C594.285889,341.288208 589.770264,340.819702 585.307068,341.102814 
	C583.896484,341.192291 582.564209,342.514954 581.184631,343.226440 
	C581.173218,343.179596 581.268311,343.195496 580.872925,343.197296 
	C579.651978,344.607941 578.153931,345.997162 578.112183,347.428802 
	C577.879578,355.412384 577.999329,363.406189 577.999207,371.396515 
	C577.999023,387.050507 578.010620,402.704559 577.978882,418.358490 
	C577.976196,419.673981 577.683716,420.988861 577.525879,422.304047 
	C576.819763,422.277374 576.113586,422.250702 575.407471,422.224030 
	C575.407471,393.816284 575.407471,365.408539 575.407471,336.893127 
	C578.461609,336.519348 581.994934,336.086914 585.528320,335.654480 
	C582.799194,335.008850 580.126099,335.233551 577.507751,334.950867 
	C574.371094,334.612213 572.923767,336.020142 572.294189,338.450867 
	C571.494751,334.476929 573.373596,333.956543 576.434021,333.958588 
	C593.899353,333.970154 611.364807,333.810272 629.200073,333.804932 
	C630.327698,333.998840 631.085632,334.096436 631.774048,334.405701 
	C631.704651,334.617371 631.474976,334.999817 631.139893,335.032104 
	C630.393188,335.777679 629.630371,336.486603 629.621399,337.204956 
	C629.416260,353.552521 629.248169,369.901093 629.247925,386.249481 
	C629.247864,387.467041 630.562317,388.684631 631.573181,389.811646 
	C639.330811,379.835327 646.781006,369.949524 654.436523,359.950806 
	C654.876526,359.604858 654.995422,359.322968 655.250427,358.825623 
	C655.712585,358.111969 655.922913,357.564911 656.085510,357.006989 
	C656.037720,356.996124 656.018555,357.092285 656.294128,357.031067 
	C656.763977,356.654419 656.958313,356.338989 657.444214,355.867126 
	C661.267334,350.850983 664.798950,345.991272 668.603638,340.942078 
	C671.847656,334.803894 676.733337,333.019501 683.055847,334.039642 
	C684.648315,334.296631 686.337036,333.956696 688.321228,333.938599 
	C689.116760,333.961426 689.572693,333.936737 690.490967,333.973572 
	C701.028137,334.038513 711.103455,334.102020 721.177307,334.006165 
	C723.925415,333.980042 726.669006,333.474701 729.586670,333.297821 
	C729.758728,333.406342 730.159973,333.339752 730.572021,333.377625 
	C735.698486,333.708527 740.412964,334.001495 745.937683,334.344818 
	C743.610596,337.624420 741.735779,340.266663 739.586670,343.094482 
	C734.928711,348.873322 730.545105,354.466614 725.960938,360.244690 
	C725.475891,360.888092 725.191406,361.346741 724.634766,361.981445 
	C723.759644,363.042419 723.156616,363.927368 722.333496,364.968201 
	C721.734314,365.716980 721.355286,366.309845 720.734009,367.054504 
	C720.066650,367.820251 719.641541,368.434174 719.140747,369.060516 
	C719.064941,369.072937 719.062012,369.226532 718.774780,369.374634 
	C708.967224,381.662598 699.446838,393.802460 689.749268,406.046295 
	C689.847595,406.247162 690.123047,406.344086 690.752075,406.374573 
	C706.750671,398.556488 722.395813,390.804810 738.332153,383.044983 
	C739.429321,382.536926 740.235291,382.037048 741.375732,381.444458 
	C742.497559,380.914856 743.284973,380.477875 744.041260,380.027252 
	C744.010132,380.013580 744.007263,380.081451 744.314697,380.050537 
	C745.132507,379.692017 745.642944,379.364380 746.506470,379.007965 
	C748.903076,377.956390 750.946533,376.933624 753.249634,375.855286 
	C753.773926,375.569153 754.038574,375.338623 754.591248,375.078278 
	C755.366028,374.747650 755.852783,374.446808 756.685547,374.091644 
	C763.987305,370.634613 770.942993,367.231934 778.238281,363.744080 
	C783.710083,361.083313 788.842346,358.507721 794.310303,355.827332 
	C798.778137,353.380920 802.910278,351.039276 807.042480,348.697662 
M614.219360,336.647430 
	C615.582581,336.711212 616.945862,336.774994 618.309082,336.838776 
	C618.321045,336.384399 618.333069,335.929993 618.345032,335.475586 
	C614.338928,335.475586 610.332825,335.475586 606.326721,335.475586 
	C606.311707,335.555481 606.296631,335.635345 606.281616,335.715240 
	C608.689453,335.926575 611.097290,336.137909 614.219360,336.647430 
M630.719971,396.129395 
	C630.191528,396.466034 629.663086,396.802673 629.134644,397.139313 
	C629.497742,397.531616 629.860779,397.923920 630.223877,398.316223 
	C630.444214,397.783630 630.664490,397.251007 630.719971,396.129395 
M591.521423,335.875519 
	C591.688904,335.716064 591.856323,335.556610 592.023804,335.397156 
	C591.769043,335.329193 591.514221,335.261230 591.259460,335.193298 
	C591.224060,335.397461 591.188660,335.601654 591.521423,335.875519 
M632.490662,391.549805 
	C632.490662,391.549805 632.458435,391.483459 632.490662,391.549805 
z"/>
<path fill="#2A8BAA" opacity="1.000000" stroke="none" 
	d="
M490.916199,506.158508 
	C494.253998,511.294922 497.234924,517.033752 500.961578,522.238647 
	C507.321442,531.121338 514.149231,539.668945 520.933228,548.655701 
	C519.655579,549.052917 518.225220,549.151672 516.345764,549.281372 
	C518.267273,553.592651 525.247375,555.460876 521.273682,561.755249 
	C519.884888,561.068481 518.752319,560.162048 517.350830,559.100220 
	C510.620331,551.067810 504.158661,543.190796 497.411285,535.155640 
	C493.449066,528.568542 489.772552,522.139465 486.048889,515.355591 
	C487.632690,512.174011 489.263702,509.347382 490.916199,506.158508 
z"/>
<path fill="#3AA8D1" opacity="1.000000" stroke="none" 
	d="
M555.838135,579.026855 
	C556.257935,578.988647 556.960693,579.171387 557.879456,579.654541 
	C557.437317,579.719238 556.779236,579.483582 555.838135,579.026855 
z"/>
<path fill="#2A8BAA" opacity="1.000000" stroke="none" 
	d="
M541.998901,602.998779 
	C542.266052,602.905273 542.534363,602.812927 542.900513,602.861572 
	C542.998474,603.002441 543.000000,603.000000 542.751343,603.000000 
	C542.502686,603.000000 542.003052,603.002441 542.003052,603.002441 
	C542.003052,603.002441 542.000000,603.000000 541.998901,602.998779 
z"/>
<path fill="#3299B5" opacity="1.000000" stroke="none" 
	d="
M792.842163,308.713318 
	C789.175110,308.913788 785.347778,308.822693 780.870972,308.717041 
	C777.074280,305.748383 774.142944,302.513977 770.739685,299.892242 
	C760.249268,291.811066 749.578552,283.963959 738.977905,276.025879 
	C744.131470,276.002350 749.285095,275.978790 754.914978,275.916077 
	C758.799988,278.080597 762.208740,280.284271 765.856689,282.726624 
	C770.868286,287.207825 775.640503,291.450378 780.703491,295.855713 
	C784.890015,300.152954 788.785950,304.287354 792.842163,308.713318 
z"/>
<path fill="#46C2D4" opacity="1.000000" stroke="none" 
	d="
M768.014771,260.021423 
	C768.030396,260.039825 767.754333,260.407349 767.754333,260.407349 
	C767.754333,260.407349 767.752258,260.089539 767.857300,260.030609 
	C767.962402,259.971680 767.999084,260.003052 768.014771,260.021423 
z"/>
<path fill="#3299B5" opacity="1.000000" stroke="none" 
	d="
M542.101807,603.141968 
	C542.003052,603.002441 542.502686,603.000000 542.752563,602.998779 
	C542.735107,603.092224 542.467773,603.186890 542.101807,603.141968 
z"/>
<path fill="#5AE9F2" opacity="1.000000" stroke="none" 
	d="
M571.912964,462.002411 
	C571.379395,463.227325 571.177673,465.131805 570.263794,465.578156 
	C544.152771,478.331543 517.970520,490.939209 491.794098,503.558502 
	C491.507111,503.696838 491.143341,503.675873 490.413300,503.657593 
	C486.859772,494.217010 483.106995,484.998260 480.719421,475.438568 
	C478.128662,465.065430 476.808777,454.374878 474.839111,443.393372 
	C475.165741,430.191406 475.561371,417.417816 476.043549,404.647491 
	C476.104736,403.026489 476.618958,401.422638 477.391846,399.420532 
	C481.730927,401.761017 485.445892,404.753998 489.507141,407.163239 
	C496.166534,411.113770 503.098969,414.600647 509.829315,418.435699 
	C520.750122,424.658569 531.530701,431.130341 542.506775,437.252563 
	C549.251282,441.014526 556.054321,444.805786 563.193542,447.685120 
	C569.325806,450.158356 571.111755,451.728241 571.037415,458.240967 
	C571.023071,459.491302 571.605774,460.748444 571.912964,462.002411 
z"/>
<path fill="#2681A3" opacity="1.000000" stroke="none" 
	d="
M690.028564,333.912109 
	C689.572693,333.936737 689.116760,333.961426 688.244385,333.607422 
	C683.257568,330.636749 678.617859,328.158295 674.134583,325.423523 
	C668.762268,322.146332 663.637024,318.455750 658.205017,315.286377 
	C643.018799,306.425720 627.745117,297.714294 612.468811,289.009216 
	C609.166504,287.127441 605.555420,285.760223 602.356628,283.730408 
	C597.057983,280.368042 592.158508,276.347290 586.731995,273.228210 
	C583.970032,271.640747 582.769836,269.953094 582.996521,266.981903 
	C591.060120,264.321167 599.123779,261.660400 607.756714,259.299164 
	C612.347778,262.635315 616.124939,266.085266 620.435059,268.634216 
	C635.858643,277.755676 651.498474,286.510620 666.983826,295.528961 
	C674.837036,300.102539 682.476318,305.042999 690.318054,309.636932 
	C699.772827,315.175873 709.378784,320.456665 718.839539,325.985535 
	C722.720276,328.253418 726.392761,330.877655 730.159973,333.339752 
	C730.159973,333.339752 729.758728,333.406342 729.080566,333.244141 
	C717.020447,333.056366 705.638428,332.999084 694.256836,333.045746 
	C692.846252,333.051514 691.437927,333.609833 690.028564,333.912109 
z"/>
<path fill="#1C6D94" opacity="1.000000" stroke="none" 
	d="
M807.057251,348.360474 
	C802.910278,351.039276 798.778137,353.380920 794.149170,355.538300 
	C791.462646,353.624359 789.444458,351.591797 787.044678,350.233032 
	C783.021851,347.955322 778.660156,346.278381 774.624023,344.021362 
	C771.624146,342.343872 769.030334,339.947540 766.052856,338.221161 
	C756.621582,332.752716 747.013489,327.587097 737.623047,322.051056 
	C719.477478,311.353424 701.454407,300.448181 683.342407,289.693329 
	C664.810120,278.688904 646.228333,267.767883 627.689148,256.774994 
	C627.012939,256.374023 626.558044,255.599731 626.000000,254.999390 
	C630.701477,254.333145 635.402893,253.666916 640.557068,253.000641 
	C644.039307,253.001495 647.068848,253.002380 650.604492,253.353806 
	C652.459473,254.828125 653.678650,256.182007 655.183228,257.029266 
	C658.641846,258.976959 662.381348,260.447113 665.754639,262.521210 
	C677.298035,269.618591 688.627991,277.066650 700.236633,284.053192 
	C713.014893,291.743652 726.019470,299.057587 738.909851,306.562256 
	C750.346130,313.220337 761.741699,319.948639 773.194031,326.578857 
	C778.604919,329.711456 784.031433,332.833527 789.590881,335.687714 
	C794.049133,337.976593 798.718567,339.854187 803.294312,341.914276 
	C804.553589,343.950592 805.812805,345.986938 807.057251,348.360474 
z"/>
<path fill="#21759A" opacity="1.000000" stroke="none" 
	d="
M625.570984,254.999878 
	C626.558044,255.599731 627.012939,256.374023 627.689148,256.774994 
	C646.228333,267.767883 664.810120,278.688904 683.342407,289.693329 
	C701.454407,300.448181 719.477478,311.353424 737.623047,322.051056 
	C747.013489,327.587097 756.621582,332.752716 766.052856,338.221161 
	C769.030334,339.947540 771.624146,342.343872 774.624023,344.021362 
	C778.660156,346.278381 783.021851,347.955322 787.044678,350.233032 
	C789.444458,351.591797 791.462646,353.624359 793.813477,355.643066 
	C788.842346,358.507721 783.710083,361.083313 777.983154,363.528656 
	C775.096436,361.937073 772.888733,360.317627 770.497681,359.041901 
	C760.315002,353.608795 750.078064,348.277374 739.860962,342.908875 
	C741.735779,340.266663 743.610596,337.624420 745.937683,334.344818 
	C740.412964,334.001495 735.698486,333.708527 730.572021,333.377625 
	C726.392761,330.877655 722.720276,328.253418 718.839539,325.985535 
	C709.378784,320.456665 699.772827,315.175873 690.318054,309.636932 
	C682.476318,305.042999 674.837036,300.102539 666.983826,295.528961 
	C651.498474,286.510620 635.858643,277.755676 620.435059,268.634216 
	C616.124939,266.085266 612.347778,262.635315 608.163086,259.294739 
	C610.010620,258.159149 611.953674,257.002045 614.046753,256.567810 
	C617.696472,255.810699 621.438599,255.498856 625.570984,254.999878 
z"/>
<path fill="#2A8BAA" opacity="1.000000" stroke="none" 
	d="
M582.638916,267.041138 
	C582.769836,269.953094 583.970032,271.640747 586.731995,273.228210 
	C592.158508,276.347290 597.057983,280.368042 602.356628,283.730408 
	C605.555420,285.760223 609.166504,287.127441 612.468811,289.009216 
	C627.745117,297.714294 643.018799,306.425720 658.205017,315.286377 
	C663.637024,318.455750 668.762268,322.146332 674.134583,325.423523 
	C678.617859,328.158295 683.257568,330.636749 687.904785,333.559906 
	C686.337036,333.956696 684.648315,334.296631 683.055847,334.039642 
	C676.733337,333.019501 671.847656,334.803894 668.218994,340.781677 
	C662.858643,339.784546 657.577209,339.794098 653.557068,337.547028 
	C638.740967,329.265411 624.425964,320.093811 609.763977,311.528320 
	C594.638184,302.691833 579.279724,294.253479 564.160034,285.406860 
	C562.325134,284.333221 561.341309,281.804962 559.963013,279.950867 
	C559.963013,279.950867 560.000793,279.964752 560.209595,279.837799 
	C560.603516,279.414307 560.788635,279.117767 560.973755,278.821228 
	C563.433411,277.031036 565.726440,274.924591 568.390015,273.521393 
	C572.897156,271.147034 577.638428,269.217133 582.638916,267.041138 
z"/>
<path fill="#3299B5" opacity="1.000000" stroke="none" 
	d="
M559.577271,279.948303 
	C561.341309,281.804962 562.325134,284.333221 564.160034,285.406860 
	C579.279724,294.253479 594.638184,302.691833 609.763977,311.528320 
	C624.425964,320.093811 638.740967,329.265411 653.557068,337.547028 
	C657.577209,339.794098 662.858643,339.784546 667.945923,340.971130 
	C664.798950,345.991272 661.267334,350.850983 657.211792,355.995636 
	C656.464783,356.551147 656.241699,356.821716 656.018555,357.092285 
	C656.018555,357.092285 656.037720,356.996124 655.841064,357.179108 
	C655.429138,357.905487 655.213867,358.448853 654.998596,358.992218 
	C654.995422,359.322968 654.876526,359.604858 654.000122,359.933289 
	C648.796631,358.752808 643.335693,360.268311 639.909485,355.456360 
	C637.364868,351.882568 634.600281,348.465454 631.842834,344.571716 
	C631.823303,342.783905 631.894714,341.402832 632.204712,339.793091 
	C634.099548,335.400848 634.099548,335.400848 631.843506,334.194031 
	C631.085632,334.096436 630.327698,333.998840 628.860168,333.611267 
	C626.828857,333.225281 625.507568,333.124451 624.185547,333.034058 
	C617.630676,332.585754 610.879822,332.977936 604.565552,331.501831 
	C594.528503,329.155426 585.566040,323.999664 576.760925,318.591888 
	C568.885437,313.755035 560.344788,309.992584 552.526611,305.074127 
	C547.587463,301.966888 543.435913,297.607605 538.931091,293.809937 
	C543.998169,289.728516 548.988647,285.545349 554.184875,281.635590 
	C555.521118,280.630157 557.505127,280.485748 559.577271,279.948303 
z"/>
<path fill="#4DD1E0" opacity="1.000000" stroke="none" 
	d="
M483.338501,374.131348 
	C485.806671,367.970093 488.274841,361.808868 491.257568,355.383301 
	C493.963623,356.814667 496.016602,358.741180 498.375946,360.157227 
	C503.052490,362.964081 507.947784,365.403778 512.664612,368.146606 
	C527.140259,376.564331 541.543091,385.107666 556.048340,393.473633 
	C559.314209,395.357269 562.891052,396.697968 566.306213,398.327484 
	C569.332397,399.771393 571.264282,401.648773 571.088257,405.563690 
	C570.752625,413.028076 570.986389,420.518036 570.628296,427.942688 
	C567.350891,425.034241 563.801758,424.227966 559.814026,423.473053 
	C556.154968,422.780365 552.881531,419.948364 549.496460,417.959717 
	C548.096130,417.137054 546.954407,415.839294 545.512573,415.127655 
	C536.528748,410.693817 527.007935,407.231293 519.826843,399.705902 
	C518.453064,398.266266 516.017639,397.889557 514.179993,396.834381 
	C504.859741,391.482574 495.549683,386.111298 486.324219,380.599365 
	C485.551910,380.137878 485.464752,378.569122 485.001099,377.541046 
	C484.481476,376.388885 483.895599,375.266602 483.338501,374.131348 
z"/>
<path fill="#54DEE9" opacity="1.000000" stroke="none" 
	d="
M483.211578,374.496948 
	C483.895599,375.266602 484.481476,376.388885 485.001099,377.541046 
	C485.464752,378.569122 485.551910,380.137878 486.324219,380.599365 
	C495.549683,386.111298 504.859741,391.482574 514.179993,396.834381 
	C516.017639,397.889557 518.453064,398.266266 519.826843,399.705902 
	C527.007935,407.231293 536.528748,410.693817 545.512573,415.127655 
	C546.954407,415.839294 548.096130,417.137054 549.496460,417.959717 
	C552.881531,419.948364 556.154968,422.780365 559.814026,423.473053 
	C563.801758,424.227966 567.350891,425.034241 570.639709,428.192505 
	C571.012207,428.663696 571.017822,428.830322 571.012573,429.465637 
	C571.312256,436.618591 571.622803,443.302856 571.933350,449.987091 
	C571.991150,453.690643 572.048889,457.394226 572.009766,461.550110 
	C571.605774,460.748444 571.023071,459.491302 571.037415,458.240967 
	C571.111755,451.728241 569.325806,450.158356 563.193542,447.685120 
	C556.054321,444.805786 549.251282,441.014526 542.506775,437.252563 
	C531.530701,431.130341 520.750122,424.658569 509.829315,418.435699 
	C503.098969,414.600647 496.166534,411.113770 489.507141,407.163239 
	C485.445892,404.753998 481.730927,401.761017 477.508301,399.024658 
	C479.132324,390.966888 481.108490,382.914734 483.211578,374.496948 
z"/>
<path fill="#3BAAC2" opacity="1.000000" stroke="none" 
	d="
M538.637512,293.987335 
	C543.435913,297.607605 547.587463,301.966888 552.526611,305.074127 
	C560.344788,309.992584 568.885437,313.755035 576.760925,318.591888 
	C585.566040,323.999664 594.528503,329.155426 604.565552,331.501831 
	C610.879822,332.977936 617.630676,332.585754 624.185547,333.034058 
	C625.507568,333.124451 626.828857,333.225281 628.490356,333.514954 
	C611.364807,333.810272 593.899353,333.970154 576.434021,333.958588 
	C573.373596,333.956543 571.494751,334.476929 572.216187,338.832062 
	C572.289551,340.133789 572.342346,340.646698 572.395142,341.159576 
	C572.316040,358.129852 572.236938,375.100098 571.807739,392.206543 
	C571.297791,385.562042 571.138000,378.781403 570.987793,371.532288 
	C570.994629,365.761108 571.106934,360.455078 570.956116,355.156555 
	C570.809326,349.999847 567.791138,346.881012 562.774597,345.881653 
	C560.872009,345.502655 558.967041,344.732666 557.274658,343.769287 
	C548.079041,338.534668 538.754822,333.485382 529.875610,327.751678 
	C525.120911,324.681366 521.171631,320.363770 516.858826,316.609070 
	C524.020569,309.127625 531.182251,301.646179 538.637512,293.987335 
z"/>
<path fill="#46C2D4" opacity="1.000000" stroke="none" 
	d="
M570.978210,372.000732 
	C571.138000,378.781403 571.297791,385.562042 571.713318,392.666687 
	C572.024841,404.687683 572.080627,416.384674 571.811279,428.540894 
	C571.486206,429.000122 571.023376,428.996948 571.023376,428.996948 
	C571.017822,428.830322 571.012207,428.663696 570.995239,428.247223 
	C570.986389,420.518036 570.752625,413.028076 571.088257,405.563690 
	C571.264282,401.648773 569.332397,399.771393 566.306213,398.327484 
	C562.891052,396.697968 559.314209,395.357269 556.048340,393.473633 
	C541.543091,385.107666 527.140259,376.564331 512.664612,368.146606 
	C507.947784,365.403778 503.052490,362.964081 498.375946,360.157227 
	C496.016602,358.741180 493.963623,356.814667 491.436188,355.072571 
	C495.499756,347.105774 499.899261,339.185333 504.824646,331.325256 
	C505.784851,333.585999 505.466858,336.674194 506.804962,337.808105 
	C509.907135,340.436920 513.799255,342.139709 517.389954,344.184784 
	C527.313599,349.836639 537.824219,354.679382 546.995361,361.361755 
	C554.440125,366.786224 562.832947,368.833618 570.978210,372.000732 
z"/>
<path fill="#40B6CB" opacity="1.000000" stroke="none" 
	d="
M570.987793,371.532288 
	C562.832947,368.833618 554.440125,366.786224 546.995361,361.361755 
	C537.824219,354.679382 527.313599,349.836639 517.389954,344.184784 
	C513.799255,342.139709 509.907135,340.436920 506.804962,337.808105 
	C505.466858,336.674194 505.784851,333.585999 505.104828,331.132080 
	C508.691193,326.288300 512.523254,321.697968 516.607056,316.858368 
	C521.171631,320.363770 525.120911,324.681366 529.875610,327.751678 
	C538.754822,333.485382 548.079041,338.534668 557.274658,343.769287 
	C558.967041,344.732666 560.872009,345.502655 562.774597,345.881653 
	C567.791138,346.881012 570.809326,349.999847 570.956116,355.156555 
	C571.106934,360.455078 570.994629,365.761108 570.987793,371.532288 
z"/>
<path fill="#3299B5" opacity="1.000000" stroke="none" 
	d="
M560.760376,278.974487 
	C560.788635,279.117767 560.603516,279.414307 560.192505,279.848175 
	C560.160034,279.699585 560.353455,279.413666 560.760376,278.974487 
z"/>
<path fill="#2A8BAA" opacity="1.000000" stroke="none" 
	d="
M490.340942,505.757324 
	C490.253540,505.813049 490.093689,505.818909 490.050171,505.694336 
	C490.166534,505.563934 490.268494,505.707428 490.340942,505.757324 
z"/>
<path fill="#17648C" opacity="1.000000" stroke="none" 
	d="
M803.195801,341.565338 
	C798.718567,339.854187 794.049133,337.976593 789.590881,335.687714 
	C784.031433,332.833527 778.604919,329.711456 773.194031,326.578857 
	C761.741699,319.948639 750.346130,313.220337 738.909851,306.562256 
	C726.019470,299.057587 713.014893,291.743652 700.236633,284.053192 
	C688.627991,277.066650 677.298035,269.618591 665.754639,262.521210 
	C662.381348,260.447113 658.641846,258.976959 655.183228,257.029266 
	C653.678650,256.182007 652.459473,254.828125 651.058960,253.357742 
	C665.391113,254.675308 679.774841,256.339447 694.572693,258.005005 
	C701.514648,260.261230 708.179321,262.189697 714.536072,264.852997 
	C722.580566,268.223419 730.374634,272.191772 738.627319,275.964050 
	C749.578552,283.963959 760.249268,291.811066 770.739685,299.892242 
	C774.142944,302.513977 777.074280,305.748383 780.497681,308.851898 
	C784.652100,313.951019 788.775879,318.731232 792.341980,323.896454 
	C796.198486,329.482361 799.534302,335.427765 803.195801,341.565338 
z"/>
<path fill="#3299B5" opacity="1.000000" stroke="none" 
	d="
M560.180420,581.158081 
	C560.364624,581.057678 560.725586,581.192566 561.264099,581.562866 
	C561.080139,581.663269 560.718628,581.528320 560.180420,581.158081 
z"/>
<path fill="#FCFCFD" opacity="1.000000" stroke="none" 
	d="
M646.515991,386.135223 
	C656.416199,372.963135 666.371765,359.831940 676.168274,346.583160 
	C678.042664,344.048187 680.035339,343.072693 683.233704,343.115204 
	C697.559509,343.305786 711.889282,343.198151 727.169189,343.198151 
	C725.855591,345.027832 724.926270,346.441772 723.879333,347.762512 
	C703.399170,373.599976 682.939392,399.453857 662.358582,425.210999 
	C660.426392,427.629242 660.984741,429.019897 662.680786,431.151733 
	C685.797424,460.209198 708.824646,489.337799 731.859619,518.460144 
	C732.733093,519.564514 733.462036,520.783081 734.776245,522.706360 
	C717.771851,522.706360 701.693237,522.784485 685.618530,522.568298 
	C684.226990,522.549622 682.552429,520.824341 681.530579,519.491943 
	C666.842041,500.340820 652.243835,481.120483 637.619141,461.920319 
	C637.138855,461.289734 636.609009,460.696991 635.762085,459.676819 
	C632.711792,463.432892 629.916626,466.874908 626.666809,470.768921 
	C625.023499,473.778168 623.834778,476.335480 622.646057,478.892822 
	C622.560486,491.629608 622.474854,504.366425 622.390686,517.931702 
	C622.415100,519.839172 622.438171,520.918213 622.461182,521.997192 
	C622.310913,522.116699 622.160645,522.236267 621.434998,522.553711 
	C607.634399,522.746643 594.409180,522.741821 581.183960,522.736938 
	C581.183960,522.736938 581.163818,522.833618 581.215027,522.382874 
	C581.197693,518.953308 581.129211,515.974426 581.060669,512.995605 
	C581.142029,508.299530 581.223328,503.603424 581.297119,498.013123 
	C581.212463,494.078033 581.135315,491.037201 581.058167,487.996368 
	C581.139954,480.635559 581.221802,473.274719 581.296631,465.002197 
	C581.282532,423.792145 581.275391,383.493835 581.268311,343.195496 
	C581.268311,343.195496 581.173218,343.179596 581.638306,343.180176 
	C595.537354,343.300110 608.971252,343.419434 622.405151,343.538788 
	C622.604492,343.373993 622.803772,343.209198 622.675415,343.621216 
	C622.466431,345.798187 622.585022,347.398315 622.703613,348.998474 
	C622.613098,349.449615 622.522705,349.900787 622.431885,351.124207 
	C622.515686,357.263763 622.599792,362.631012 622.683960,367.998260 
	C622.586975,369.724365 622.489990,371.450439 622.399780,373.974121 
	C622.499023,375.847198 622.591553,376.922638 622.684082,377.998108 
	C622.588623,384.365448 622.493164,390.732788 622.409302,397.995361 
	C622.421082,405.019775 622.421265,411.148956 622.347168,417.434509 
	C622.437622,417.494354 622.602356,417.397797 623.131714,417.203003 
	C624.117371,416.158783 624.710327,415.192963 625.363892,414.269989 
	C630.405212,407.150146 635.458252,400.038666 640.507690,392.924591 
	C640.507690,392.924591 640.846802,392.828461 641.144653,392.504639 
	C642.007019,391.451630 642.571533,390.722473 643.136108,389.993317 
	C643.731812,389.246948 644.327576,388.500549 645.294250,387.374298 
	C645.948792,386.708038 646.232422,386.421631 646.515991,386.135223 
z"/>
<path fill="#2681A3" opacity="1.000000" stroke="none" 
	d="
M739.586670,343.094482 
	C750.078064,348.277374 760.315002,353.608795 770.497681,359.041901 
	C772.888733,360.317627 775.096436,361.937073 777.643616,363.613831 
	C770.942993,367.231934 763.987305,370.634613 756.342896,373.948730 
	C751.322021,373.849030 747.958496,372.103638 744.323059,369.550293 
	C738.781128,365.657898 732.264343,363.153564 726.161499,360.059875 
	C730.545105,354.466614 734.928711,348.873322 739.586670,343.094482 
z"/>
<path fill="#0B1941" opacity="1.000000" stroke="none" 
	d="
M580.872925,343.197296 
	C581.275391,383.493835 581.282532,423.792145 581.175354,464.547485 
	C579.508057,462.845825 577.955078,460.687195 576.107361,458.118805 
	C575.315796,459.174255 574.403931,460.390045 573.012817,462.244781 
	C573.012817,459.976074 573.012878,458.270050 573.012817,456.564056 
	C573.011780,420.148438 573.014343,383.732819 572.999390,347.317200 
	C572.998657,345.496155 572.846863,343.675171 572.580261,341.506866 
	C572.342346,340.646698 572.289551,340.133789 572.314819,339.239716 
	C572.923767,336.020142 574.371094,334.612213 577.507751,334.950867 
	C580.126099,335.233551 582.799194,335.008850 585.528320,335.654480 
	C581.994934,336.086914 578.461609,336.519348 575.407471,336.893127 
	C575.407471,365.408539 575.407471,393.816284 575.407471,422.224030 
	C576.113586,422.250702 576.819763,422.277374 577.525879,422.304047 
	C577.683716,420.988861 577.976196,419.673981 577.978882,418.358490 
	C578.010620,402.704559 577.999023,387.050507 577.999207,371.396515 
	C577.999329,363.406189 577.879578,355.412384 578.112183,347.428802 
	C578.153931,345.997162 579.651978,344.607941 580.872925,343.197296 
M575.796753,440.020874 
	C575.796753,442.150879 575.796753,444.280853 575.796753,446.410858 
	C576.352600,446.388672 576.908508,446.366516 577.464355,446.344330 
	C577.464355,439.513916 577.464355,432.683472 577.464355,425.853027 
	C576.953857,425.830841 576.443420,425.808655 575.932922,425.786469 
	C575.932922,430.247528 575.932922,434.708557 575.796753,440.020874 
z"/>
<path fill="#3BAAC2" opacity="1.000000" stroke="none" 
	d="
M631.933716,344.978516 
	C634.600281,348.465454 637.364868,351.882568 639.909485,355.456360 
	C643.335693,360.268311 648.796631,358.752808 653.794800,360.046204 
	C646.781006,369.949524 639.330811,379.835327 631.584900,389.351013 
	C631.320618,384.854309 631.323669,380.727325 631.388977,376.601318 
	C631.555725,366.060150 631.750305,355.519409 631.933716,344.978516 
z"/>
<path fill="#2A8BAA" opacity="1.000000" stroke="none" 
	d="
M725.960938,360.244629 
	C732.264343,363.153564 738.781128,365.657898 744.323059,369.550293 
	C747.958496,372.103638 751.322021,373.849030 755.996826,374.003052 
	C755.852783,374.446808 755.366028,374.747650 754.329468,375.136658 
	C753.516418,375.453491 753.253235,375.682190 752.989990,375.910889 
	C750.946533,376.933624 748.903076,377.956390 746.192688,379.039612 
	C745.019592,379.427216 744.513428,379.754333 744.007263,380.081482 
	C744.007263,380.081451 744.010132,380.013580 743.669434,380.034393 
	C742.566284,380.549194 741.803772,381.043182 741.041260,381.537140 
	C740.235291,382.037048 739.429321,382.536926 738.109070,382.819885 
	C736.821045,382.692139 735.985535,382.622345 735.283325,382.895477 
	C728.842590,385.400848 723.994385,381.920532 719.155518,378.593170 
	C714.787720,375.589722 719.338501,372.352814 719.062012,369.226532 
	C719.062012,369.226532 719.064941,369.072937 719.427551,368.963379 
	C720.185547,368.203430 720.580872,367.553101 720.976257,366.902710 
	C721.355286,366.309845 721.734314,365.716980 722.721924,364.962830 
	C723.856018,363.802826 724.381470,362.804108 724.906982,361.805389 
	C725.191406,361.346741 725.475891,360.888092 725.960938,360.244629 
z"/>
<path fill="#3299B5" opacity="1.000000" stroke="none" 
	d="
M718.774780,369.374634 
	C719.338501,372.352814 714.787720,375.589722 719.155518,378.593170 
	C723.994385,381.920532 728.842590,385.400848 735.283325,382.895477 
	C735.985535,382.622345 736.821045,382.692139 737.817810,382.828003 
	C722.395813,390.804810 706.750671,398.556488 690.639404,406.244843 
	C690.173157,406.181549 689.926453,405.942322 689.926453,405.942322 
	C699.446838,393.802460 708.967224,381.662598 718.774780,369.374634 
z"/>
<path fill="#0B1941" opacity="1.000000" stroke="none" 
	d="
M622.421448,417.278107 
	C622.421265,411.148956 622.421082,405.019775 622.560547,398.440247 
	C624.438904,399.465118 626.177551,400.940369 628.655945,403.043243 
	C630.852478,400.399109 633.060120,397.464478 635.584839,394.834198 
	C636.644897,393.729828 638.375916,393.269440 640.154785,392.720459 
	C635.458252,400.038666 630.405212,407.150146 625.363892,414.269989 
	C624.710327,415.192963 624.117371,416.158783 623.054199,417.056549 
	C622.612122,417.008362 622.421448,417.278107 622.421448,417.278107 
z"/>
<path fill="#0B1941" opacity="1.000000" stroke="none" 
	d="
M622.547974,343.113861 
	C608.971252,343.419434 595.537354,343.300110 581.649780,343.226990 
	C582.564209,342.514954 583.896484,341.192291 585.307068,341.102814 
	C589.770264,340.819702 594.285889,341.288208 598.738770,340.933441 
	C606.531372,340.312592 614.292358,339.295685 622.690735,338.376434 
	C622.690735,339.909668 622.690735,341.299286 622.547974,343.113861 
z"/>
<path fill="#0B1941" opacity="1.000000" stroke="none" 
	d="
M581.205994,523.101685 
	C594.409180,522.741821 607.634399,522.746643 621.309143,522.812866 
	C623.758423,525.981750 621.350769,525.704712 619.535828,525.660889 
	C610.112549,525.433411 600.686340,525.243530 591.270508,524.828735 
	C587.909546,524.680725 584.574768,523.937866 581.205994,523.101685 
z"/>
<path fill="#0B1941" opacity="1.000000" stroke="none" 
	d="
M631.842834,344.571716 
	C631.750305,355.519409 631.555725,366.060150 631.388977,376.601318 
	C631.323669,380.727325 631.320618,384.854309 631.277466,389.441528 
	C630.562317,388.684631 629.247864,387.467041 629.247925,386.249481 
	C629.248169,369.901093 629.416260,353.552521 629.621399,337.204956 
	C629.630371,336.486603 630.393188,335.777679 631.242188,335.440613 
	C631.775024,337.218506 631.870544,338.620148 631.966064,340.021790 
	C631.894714,341.402832 631.823303,342.783905 631.842834,344.571716 
z"/>
<path fill="#0B1941" opacity="1.000000" stroke="none" 
	d="
M622.974121,367.817352 
	C622.599792,362.631012 622.515686,357.263763 622.571106,351.447571 
	C626.082458,354.193329 626.943237,357.708038 624.629822,362.012909 
	C623.746277,363.657196 623.694885,365.748718 622.974121,367.817352 
z"/>
<path fill="#21759A" opacity="1.000000" stroke="none" 
	d="
M690.490967,333.973572 
	C691.437927,333.609833 692.846252,333.051514 694.256836,333.045746 
	C705.638428,332.999084 717.020447,333.056366 728.908508,333.135620 
	C726.669006,333.474701 723.925415,333.980042 721.177307,334.006165 
	C711.103455,334.102020 701.028137,334.038513 690.490967,333.973572 
z"/>
<path fill="#0B1941" opacity="1.000000" stroke="none" 
	d="
M580.707825,513.083374 
	C581.129211,515.974426 581.197693,518.953308 581.263733,522.374756 
	C578.087524,522.418579 576.281616,521.328369 578.396301,517.805725 
	C579.250977,516.382019 579.713806,514.723083 580.707825,513.083374 
z"/>
<path fill="#0B1941" opacity="1.000000" stroke="none" 
	d="
M580.696533,488.077606 
	C581.135315,491.037201 581.212463,494.078033 581.173889,497.561279 
	C577.073364,495.144897 576.856995,492.199219 580.696533,488.077606 
z"/>
<path fill="#4DD1E0" opacity="1.000000" stroke="none" 
	d="
M571.012573,429.465637 
	C571.023376,428.996948 571.486206,429.000122 571.717651,429.001831 
	C572.007324,435.691986 572.065674,442.380402 572.028687,449.527954 
	C571.622803,443.302856 571.312256,436.618591 571.012573,429.465637 
z"/>
<path fill="#0B1941" opacity="1.000000" stroke="none" 
	d="
M613.862244,336.498352 
	C611.097290,336.137909 608.689453,335.926575 606.281616,335.715240 
	C606.296631,335.635345 606.311707,335.555481 606.326721,335.475586 
	C610.332825,335.475586 614.338928,335.475586 618.345032,335.475586 
	C618.333069,335.929993 618.321045,336.384399 618.309082,336.838776 
	C616.945862,336.774994 615.582581,336.711212 613.862244,336.498352 
z"/>
<path fill="#0B1941" opacity="1.000000" stroke="none" 
	d="
M622.961914,478.747803 
	C623.834778,476.335480 625.023499,473.778168 626.534302,471.081055 
	C625.663574,473.495148 624.470703,476.049011 622.961914,478.747803 
z"/>
<path fill="#0B1941" opacity="1.000000" stroke="none" 
	d="
M622.979248,348.834106 
	C622.585022,347.398315 622.466431,345.798187 622.373047,343.863586 
	C626.072144,344.678040 623.524170,346.863708 622.979248,348.834106 
z"/>
<path fill="#3BAAC2" opacity="1.000000" stroke="none" 
	d="
M632.204712,339.793091 
	C631.870544,338.620148 631.775024,337.218506 631.577271,335.408325 
	C631.474976,334.999817 631.704651,334.617371 631.774048,334.405701 
	C634.099548,335.400848 634.099548,335.400848 632.204712,339.793091 
z"/>
<path fill="#0B1941" opacity="1.000000" stroke="none" 
	d="
M622.734497,521.887939 
	C622.438171,520.918213 622.415100,519.839172 622.533325,518.379883 
	C622.785645,519.259277 622.896667,520.518921 622.734497,521.887939 
z"/>
<path fill="#0B1941" opacity="1.000000" stroke="none" 
	d="
M622.934814,377.866089 
	C622.591553,376.922638 622.499023,375.847198 622.542969,374.385620 
	C622.848083,375.244385 623.016846,376.489227 622.934814,377.866089 
z"/>
<path fill="#0B1941" opacity="1.000000" stroke="none" 
	d="
M630.802368,396.423889 
	C630.664490,397.251007 630.444214,397.783630 630.223877,398.316223 
	C629.860779,397.923920 629.497742,397.531616 629.134644,397.139343 
	C629.663086,396.802673 630.191528,396.466034 630.802368,396.423889 
z"/>
<path fill="#2681A3" opacity="1.000000" stroke="none" 
	d="
M724.634766,361.981445 
	C724.381470,362.804108 723.856018,363.802826 722.942017,364.806946 
	C723.156616,363.927368 723.759644,363.042419 724.634766,361.981445 
z"/>
<path fill="#0B1941" opacity="1.000000" stroke="none" 
	d="
M642.751587,390.011169 
	C642.571533,390.722473 642.007019,391.451630 641.188721,392.333984 
	C641.412415,391.667816 641.889771,390.848419 642.751587,390.011169 
z"/>
<path fill="#0B1941" opacity="1.000000" stroke="none" 
	d="
M591.337341,335.840668 
	C591.188660,335.601654 591.224060,335.397461 591.259460,335.193298 
	C591.514221,335.261230 591.769043,335.329193 592.023804,335.397156 
	C591.856323,335.556610 591.688904,335.716064 591.337341,335.840668 
z"/>
<path fill="#3299B5" opacity="1.000000" stroke="none" 
	d="
M720.734009,367.054535 
	C720.580872,367.553101 720.185547,368.203430 719.503296,368.950928 
	C719.641541,368.434174 720.066650,367.820251 720.734009,367.054535 
z"/>
<path fill="#3299B5" opacity="1.000000" stroke="none" 
	d="
M741.375732,381.444458 
	C741.803772,381.043182 742.566284,380.549194 743.700562,380.048065 
	C743.284973,380.477875 742.497559,380.914856 741.375732,381.444458 
z"/>
<path fill="#3BAAC2" opacity="1.000000" stroke="none" 
	d="
M655.250427,358.825623 
	C655.213867,358.448853 655.429138,357.905487 655.888855,357.189972 
	C655.922913,357.564911 655.712585,358.111969 655.250427,358.825623 
z"/>
<path fill="#3299B5" opacity="1.000000" stroke="none" 
	d="
M744.314697,380.050568 
	C744.513428,379.754333 745.019592,379.427216 745.839600,379.068420 
	C745.642944,379.364380 745.132507,379.692017 744.314697,380.050568 
z"/>
<path fill="#3299B5" opacity="1.000000" stroke="none" 
	d="
M690.285889,406.311279 
	C690.123047,406.344086 689.847595,406.247162 689.749268,406.046295 
	C689.926453,405.942322 690.173157,406.181549 690.285889,406.311279 
z"/>
<path fill="#3BAAC2" opacity="1.000000" stroke="none" 
	d="
M656.294128,357.031067 
	C656.241699,356.821716 656.464783,356.551147 656.920288,356.152039 
	C656.958313,356.338989 656.763977,356.654419 656.294128,357.031067 
z"/>
<path fill="#2681A3" opacity="1.000000" stroke="none" 
	d="
M753.249634,375.855316 
	C753.253235,375.682190 753.516418,375.453491 754.041382,375.166443 
	C754.038574,375.338623 753.773926,375.569153 753.249634,375.855316 
z"/>
<path fill="#0B1941" opacity="1.000000" stroke="none" 
	d="
M646.221924,386.232666 
	C646.232422,386.421631 645.948792,386.708038 645.367554,387.095520 
	C645.355835,386.907776 645.641907,386.618958 646.221924,386.232666 
z"/>
<path fill="#0B1941" opacity="1.000000" stroke="none" 
	d="
M632.474548,391.516632 
	C632.458435,391.483459 632.490662,391.549805 632.474548,391.516632 
z"/>
<path fill="#2681A3" opacity="1.000000" stroke="none" 
	d="
M622.347168,417.434509 
	C622.421448,417.278107 622.612122,417.008362 622.689575,417.154785 
	C622.602356,417.397797 622.437622,417.494354 622.347168,417.434509 
z"/>
<path fill="#0E1D46" opacity="1.000000" stroke="none" 
	d="
M575.864868,439.595215 
	C575.932922,434.708557 575.932922,430.247528 575.932922,425.786469 
	C576.443420,425.808655 576.953857,425.830841 577.464355,425.853027 
	C577.464355,432.683472 577.464355,439.513916 577.464355,446.344330 
	C576.908508,446.366516 576.352600,446.388672 575.796753,446.410858 
	C575.796753,444.280853 575.796753,442.150879 575.864868,439.595215 
z"/>
</svg>